<?xml version="1.0" encoding="utf-8"?>
<!-- Generator: Adobe Illustrator 23.0.1, SVG Export Plug-In . SVG Version: 6.00 Build 0)  -->
<svg version="1.1" id="Layer_1" xmlns="http://www.w3.org/2000/svg" xmlns:xlink="http://www.w3.org/1999/xlink" x="0px" y="0px"
	 viewBox="0 0 2000 2000" style="enable-background:new 0 0 2000 2000;" xml:space="preserve">
<style type="text/css">
	.st0{fill:url(#SVGID_1_);}
	.st1{fill:url(#SVGID_2_);}
	.st2{fill:url(#SVGID_3_);}
	.st3{fill:url(#SVGID_4_);}
	.st4{fill:url(#SVGID_5_);}
	.st5{fill:url(#SVGID_6_);}
	.st6{fill:url(#SVGID_7_);}
	.st7{fill:url(#SVGID_8_);}
	.st8{fill:url(#SVGID_9_);}
	.st9{fill:url(#SVGID_10_);}
	.st10{fill:url(#SVGID_11_);}
	.st11{fill:url(#SVGID_12_);}
	.st12{fill:url(#SVGID_13_);}
	.st13{fill:url(#SVGID_14_);}
	.st14{fill:url(#SVGID_15_);}
	.st15{fill:url(#SVGID_16_);}
</style>
<linearGradient id="SVGID_1_" gradientUnits="userSpaceOnUse" x1="1676.6411" y1="-117.6294" x2="-517.989" y2="1732.4949">
	<stop  offset="0" style="stop-color:#37B34A"/>
	<stop  offset="6.913048e-02" style="stop-color:#4DB945"/>
	<stop  offset="0.2159" style="stop-color:#77C43A"/>
	<stop  offset="0.3661" style="stop-color:#99CE32"/>
	<stop  offset="0.5181" style="stop-color:#B4D52B"/>
	<stop  offset="0.6726" style="stop-color:#C7DA27"/>
	<stop  offset="0.8311" style="stop-color:#D2DD24"/>
	<stop  offset="1" style="stop-color:#D6DE23"/>
</linearGradient>
<path class="st0" d="M1585,630.4c-35.2-47.9-74-92.3-116.6-132c-21-20.2-44.3-37.7-66.9-55.6c-21.8-18.9-46.9-33.4-71-48.9
	c-48.2-30.8-100-55.1-152.9-75c-12.8-6-27-8.4-40.3-13l-40.4-12.4c-27.5-5.9-55-11.8-82.6-16.6c-111.1-15.3-224.1-9-331,19.6
	c-106.8,28.4-207.4,78.6-293.5,147.5C303.2,512.6,231,599.3,179.9,697.3c-51.7,97.8-82.3,206.7-91.8,318.4l-1.9,21l-0.9,10.5
	l0.1,10.5l0.4,42.2l0.1,21.1c0.4,7,1.4,14,2.1,21c1.6,14,2.7,28.1,4,42.2c0.6,14.2,4.1,28,6.5,41.9l7.9,41.9
	c7,27.5,15.5,54.8,23.5,82.3l15.4,40.1l7.7,20.2c2.4,6.8,5.2,13.5,8.7,19.8l19.5,38.7c6.5,12.9,12.6,26.2,20.7,38.3
	c29.3,50.4,64.4,97.5,102.2,143.5c-24.1-17.6-44.8-39-67.2-59l-16.4-15.5l-14.8-17l-29.6-34.3c-10.4-11.1-18.9-23.6-27.3-36.2
	l-25.6-37.7c-4.5-6.2-8.4-12.7-11.8-19.5l-10.9-20.1l-21.9-40.4C26.1,1260.6-1.2,1136.7,0,1012.1c0-124.6,29.5-249.9,84.3-363.3
	c5.8-14.7,14.8-27.8,22.3-41.6l23.7-41c17.5-26.2,36.4-51.5,54.9-77.1c21.1-23.4,41.7-47.4,63.5-70.1c23.5-21,46.1-43.2,70.6-63
	c99-78.6,215.6-134.8,338.3-163c122.6-28.2,251.1-29.4,372.8-2.2c122,26.1,236,82.3,331.9,158.2c23.4,19.8,47.5,38.5,67.9,61.2
	c21.1,21.9,43,42.8,61.1,67.2C1528.7,524.8,1560.5,576.2,1585,630.4z"/>
<linearGradient id="SVGID_2_" gradientUnits="userSpaceOnUse" x1="1844.421" y1="81.3923" x2="-350.2091" y2="1931.5166">
	<stop  offset="0" style="stop-color:#37B34A"/>
	<stop  offset="6.913048e-02" style="stop-color:#4DB945"/>
	<stop  offset="0.2159" style="stop-color:#77C43A"/>
	<stop  offset="0.3661" style="stop-color:#99CE32"/>
	<stop  offset="0.5181" style="stop-color:#B4D52B"/>
	<stop  offset="0.6726" style="stop-color:#C7DA27"/>
	<stop  offset="0.8311" style="stop-color:#D2DD24"/>
	<stop  offset="1" style="stop-color:#D6DE23"/>
</linearGradient>
<path class="st1" d="M1000.5,801.4c-5.1-1.2-10.2-2.7-15-4.4C990.6,798.1,995.7,799.6,1000.5,801.4z"/>
<linearGradient id="SVGID_3_" gradientUnits="userSpaceOnUse" x1="1844.421" y1="81.3923" x2="-350.2091" y2="1931.5166">
	<stop  offset="0" style="stop-color:#37B34A"/>
	<stop  offset="6.913048e-02" style="stop-color:#4DB945"/>
	<stop  offset="0.2159" style="stop-color:#77C43A"/>
	<stop  offset="0.3661" style="stop-color:#99CE32"/>
	<stop  offset="0.5181" style="stop-color:#B4D52B"/>
	<stop  offset="0.6726" style="stop-color:#C7DA27"/>
	<stop  offset="0.8311" style="stop-color:#D2DD24"/>
	<stop  offset="1" style="stop-color:#D6DE23"/>
</linearGradient>
<path class="st2" d="M1000.5,801.4c-5.1-1.2-10.2-2.7-15-4.4C990.6,798.1,995.7,799.6,1000.5,801.4z"/>
<linearGradient id="SVGID_4_" gradientUnits="userSpaceOnUse" x1="2409.3225" y1="751.4822" x2="214.6922" y2="2601.6064">
	<stop  offset="0" style="stop-color:#37B34A"/>
	<stop  offset="6.913048e-02" style="stop-color:#4DB945"/>
	<stop  offset="0.2159" style="stop-color:#77C43A"/>
	<stop  offset="0.3661" style="stop-color:#99CE32"/>
	<stop  offset="0.5181" style="stop-color:#B4D52B"/>
	<stop  offset="0.6726" style="stop-color:#C7DA27"/>
	<stop  offset="0.8311" style="stop-color:#D2DD24"/>
	<stop  offset="1" style="stop-color:#D6DE23"/>
</linearGradient>
<path class="st3" d="M1507.1,1515.2c-0.8,1-1.7,2.1-2.5,3.1c0.5-3.2,1-6.4,1.5-9.6C1506.5,1510.9,1506.8,1513.1,1507.1,1515.2z"/>
<linearGradient id="SVGID_5_" gradientUnits="userSpaceOnUse" x1="2031.1775" y1="302.9241" x2="-163.4527" y2="2153.0483">
	<stop  offset="0" style="stop-color:#37B34A"/>
	<stop  offset="6.913048e-02" style="stop-color:#4DB945"/>
	<stop  offset="0.2159" style="stop-color:#77C43A"/>
	<stop  offset="0.3661" style="stop-color:#99CE32"/>
	<stop  offset="0.5181" style="stop-color:#B4D52B"/>
	<stop  offset="0.6726" style="stop-color:#C7DA27"/>
	<stop  offset="0.8311" style="stop-color:#D2DD24"/>
	<stop  offset="1" style="stop-color:#D6DE23"/>
</linearGradient>
<path class="st4" d="M1436.2,1029.9v0.1c-0.2,60.2-7,118.9-19.5,175.4c-63-106.6-149.2-197.9-251.7-266.9
	c-25.4-79.5-39.1-164.2-39.1-252.1c0-1.6,0-3.2,0-4.8C1259.8,765.3,1368.1,886.2,1436.2,1029.9z"/>
<linearGradient id="SVGID_6_" gradientUnits="userSpaceOnUse" x1="1844.421" y1="81.3923" x2="-350.2091" y2="1931.5166">
	<stop  offset="0" style="stop-color:#37B34A"/>
	<stop  offset="6.913048e-02" style="stop-color:#4DB945"/>
	<stop  offset="0.2159" style="stop-color:#77C43A"/>
	<stop  offset="0.3661" style="stop-color:#99CE32"/>
	<stop  offset="0.5181" style="stop-color:#B4D52B"/>
	<stop  offset="0.6726" style="stop-color:#C7DA27"/>
	<stop  offset="0.8311" style="stop-color:#D2DD24"/>
	<stop  offset="1" style="stop-color:#D6DE23"/>
</linearGradient>
<path class="st5" d="M1000.5,801.4c-5.1-1.2-10.2-2.7-15-4.4C990.6,798.1,995.7,799.6,1000.5,801.4z"/>
<linearGradient id="SVGID_7_" gradientUnits="userSpaceOnUse" x1="2031.1775" y1="302.9241" x2="-163.4527" y2="2153.0483">
	<stop  offset="0" style="stop-color:#37B34A"/>
	<stop  offset="6.913048e-02" style="stop-color:#4DB945"/>
	<stop  offset="0.2159" style="stop-color:#77C43A"/>
	<stop  offset="0.3661" style="stop-color:#99CE32"/>
	<stop  offset="0.5181" style="stop-color:#B4D52B"/>
	<stop  offset="0.6726" style="stop-color:#C7DA27"/>
	<stop  offset="0.8311" style="stop-color:#D2DD24"/>
	<stop  offset="1" style="stop-color:#D6DE23"/>
</linearGradient>
<path class="st6" d="M1436.2,1029.9v0.1c-0.2,60.2-7,118.9-19.5,175.4c-63-106.6-149.2-197.9-251.7-266.9
	c-25.4-79.5-39.1-164.2-39.1-252.1c0-1.6,0-3.2,0-4.8C1259.8,765.3,1368.1,886.2,1436.2,1029.9z"/>
<linearGradient id="SVGID_8_" gradientUnits="userSpaceOnUse" x1="2031.1775" y1="302.9241" x2="-163.4527" y2="2153.0483">
	<stop  offset="0" style="stop-color:#37B34A"/>
	<stop  offset="6.913048e-02" style="stop-color:#4DB945"/>
	<stop  offset="0.2159" style="stop-color:#77C43A"/>
	<stop  offset="0.3661" style="stop-color:#99CE32"/>
	<stop  offset="0.5181" style="stop-color:#B4D52B"/>
	<stop  offset="0.6726" style="stop-color:#C7DA27"/>
	<stop  offset="0.8311" style="stop-color:#D2DD24"/>
	<stop  offset="1" style="stop-color:#D6DE23"/>
</linearGradient>
<path class="st7" d="M1125.9,681.6c0,1.6,0,3.2,0,4.8c0,87.9,13.7,172.6,39.1,252.1c102.5,68.9,188.7,160.2,251.7,266.9
	c12.5-56.5,19.3-115.2,19.5-175.4v-0.1C1368.1,886.2,1259.8,765.3,1125.9,681.6z"/>
<linearGradient id="SVGID_9_" gradientUnits="userSpaceOnUse" x1="2409.3225" y1="751.4822" x2="214.6922" y2="2601.6064">
	<stop  offset="0" style="stop-color:#37B34A"/>
	<stop  offset="6.913048e-02" style="stop-color:#4DB945"/>
	<stop  offset="0.2159" style="stop-color:#77C43A"/>
	<stop  offset="0.3661" style="stop-color:#99CE32"/>
	<stop  offset="0.5181" style="stop-color:#B4D52B"/>
	<stop  offset="0.6726" style="stop-color:#C7DA27"/>
	<stop  offset="0.8311" style="stop-color:#D2DD24"/>
	<stop  offset="1" style="stop-color:#D6DE23"/>
</linearGradient>
<path class="st8" d="M1506.1,1508.7c-0.5,3.2-1,6.4-1.5,9.6c0.8-1,1.6-2.1,2.5-3.1C1506.8,1513.1,1506.5,1510.9,1506.1,1508.7z"/>
<linearGradient id="SVGID_10_" gradientUnits="userSpaceOnUse" x1="2277.2385" y1="594.8035" x2="82.6085" y2="2444.9277">
	<stop  offset="0" style="stop-color:#37B34A"/>
	<stop  offset="6.913048e-02" style="stop-color:#4DB945"/>
	<stop  offset="0.2159" style="stop-color:#77C43A"/>
	<stop  offset="0.3661" style="stop-color:#99CE32"/>
	<stop  offset="0.5181" style="stop-color:#B4D52B"/>
	<stop  offset="0.6726" style="stop-color:#C7DA27"/>
	<stop  offset="0.8311" style="stop-color:#D2DD24"/>
	<stop  offset="1" style="stop-color:#D6DE23"/>
</linearGradient>
<path class="st9" d="M1749.3,941.9c-20.8,11.8-38,29.3-49.5,50.3c-8.9,16.5-14.3,35.1-15.1,55c-0.4-0.2-0.8-0.3-1.2-0.4
	c-1.7,32.9-5.3,65.3-10.8,97.1c-17,99.4-51.8,192.8-101,276.7c-15.4,26.4-32.3,51.9-50.5,76.3c-4.6,6.2-9.3,12.3-14,18.3
	c-0.3-2.2-0.6-4.4-0.9-6.5c-0.5,3.2-1,6.4-1.5,9.6c-68.7,86.2-154.2,158.4-251.6,211.5c-102.4,55.8-217.9,90.7-340.7,98.8
	c140.1-50.4,262.5-137.6,355.9-249.8c64.2-77.2,114.6-166.2,147.5-263.4c5.3-15.7,10.2-31.6,14.6-47.7c2.3-8.6,4.5-17.2,6.6-26
	c12.3-51.6,19.7-105.1,21.7-160c0.4-10.4,0.6-20.9,0.6-31.5c0-70.3,57-127.3,127.3-127.3c9.7,0,19.2,1.1,28.4,3.2c0,0,0,0,0.1,0
	c4.9,1.8,9.9,3.2,15,4.4c0,0,0,0,0,0c9.1,2.1,18.5,3.2,28.3,3.2c3.7,0,7.4-0.2,11-0.5c4.1-0.4,8.2-0.9,12.1-1.6
	c9.7-1.8,18.9-4.6,27.6-8.5C2071.8,680.2,2093.5,681.7,1749.3,941.9z"/>
<linearGradient id="SVGID_11_" gradientUnits="userSpaceOnUse" x1="2409.3225" y1="751.4822" x2="214.6922" y2="2601.6064">
	<stop  offset="0" style="stop-color:#37B34A"/>
	<stop  offset="6.913048e-02" style="stop-color:#4DB945"/>
	<stop  offset="0.2159" style="stop-color:#77C43A"/>
	<stop  offset="0.3661" style="stop-color:#99CE32"/>
	<stop  offset="0.5181" style="stop-color:#B4D52B"/>
	<stop  offset="0.6726" style="stop-color:#C7DA27"/>
	<stop  offset="0.8311" style="stop-color:#D2DD24"/>
	<stop  offset="1" style="stop-color:#D6DE23"/>
</linearGradient>
<path class="st10" d="M1507.1,1515.2c-0.8,1-1.7,2.1-2.5,3.1c0.5-3.2,1-6.4,1.5-9.6C1506.5,1510.9,1506.8,1513.1,1507.1,1515.2z"/>
<linearGradient id="SVGID_12_" gradientUnits="userSpaceOnUse" x1="2031.1775" y1="302.9241" x2="-163.4527" y2="2153.0483">
	<stop  offset="0" style="stop-color:#37B34A"/>
	<stop  offset="6.913048e-02" style="stop-color:#4DB945"/>
	<stop  offset="0.2159" style="stop-color:#77C43A"/>
	<stop  offset="0.3661" style="stop-color:#99CE32"/>
	<stop  offset="0.5181" style="stop-color:#B4D52B"/>
	<stop  offset="0.6726" style="stop-color:#C7DA27"/>
	<stop  offset="0.8311" style="stop-color:#D2DD24"/>
	<stop  offset="1" style="stop-color:#D6DE23"/>
</linearGradient>
<path class="st11" d="M1125.9,681.6c0,1.6,0,3.2,0,4.8c0,87.9,13.7,172.6,39.1,252.1c102.5,68.9,188.7,160.2,251.7,266.9
	c12.5-56.5,19.3-115.2,19.5-175.4v-0.1C1368.1,886.2,1259.8,765.3,1125.9,681.6z"/>
<linearGradient id="SVGID_13_" gradientUnits="userSpaceOnUse" x1="1844.421" y1="81.3923" x2="-350.2091" y2="1931.5166">
	<stop  offset="0" style="stop-color:#37B34A"/>
	<stop  offset="6.913048e-02" style="stop-color:#4DB945"/>
	<stop  offset="0.2159" style="stop-color:#77C43A"/>
	<stop  offset="0.3661" style="stop-color:#99CE32"/>
	<stop  offset="0.5181" style="stop-color:#B4D52B"/>
	<stop  offset="0.6726" style="stop-color:#C7DA27"/>
	<stop  offset="0.8311" style="stop-color:#D2DD24"/>
	<stop  offset="1" style="stop-color:#D6DE23"/>
</linearGradient>
<path class="st12" d="M1000.5,801.4c-5.1-1.2-10.2-2.7-15-4.4C990.6,798.1,995.7,799.6,1000.5,801.4z"/>
<linearGradient id="SVGID_14_" gradientUnits="userSpaceOnUse" x1="2036.5801" y1="309.3326" x2="-158.0501" y2="2159.457">
	<stop  offset="0" style="stop-color:#37B34A"/>
	<stop  offset="6.913048e-02" style="stop-color:#4DB945"/>
	<stop  offset="0.2159" style="stop-color:#77C43A"/>
	<stop  offset="0.3661" style="stop-color:#99CE32"/>
	<stop  offset="0.5181" style="stop-color:#B4D52B"/>
	<stop  offset="0.6726" style="stop-color:#C7DA27"/>
	<stop  offset="0.8311" style="stop-color:#D2DD24"/>
	<stop  offset="1" style="stop-color:#D6DE23"/>
</linearGradient>
<path class="st13" d="M1410.7,1230.4L1410.7,1230.4c-5.5,21.6-11.8,42.8-18.9,63.7c-29,84.7-71.4,163.2-124.5,232.9
	c-16.7-322.3-217.9-595.7-499.9-716.8c150.9,14.3,290,69.1,406.2,153.4C1270.6,1034.1,1351.8,1125.2,1410.7,1230.4z"/>
<linearGradient id="SVGID_15_" gradientUnits="userSpaceOnUse" x1="2031.1775" y1="302.9241" x2="-163.4527" y2="2153.0483">
	<stop  offset="0" style="stop-color:#37B34A"/>
	<stop  offset="6.913048e-02" style="stop-color:#4DB945"/>
	<stop  offset="0.2159" style="stop-color:#77C43A"/>
	<stop  offset="0.3661" style="stop-color:#99CE32"/>
	<stop  offset="0.5181" style="stop-color:#B4D52B"/>
	<stop  offset="0.6726" style="stop-color:#C7DA27"/>
	<stop  offset="0.8311" style="stop-color:#D2DD24"/>
	<stop  offset="1" style="stop-color:#D6DE23"/>
</linearGradient>
<path class="st14" d="M1125.9,681.6c0,1.6,0,3.2,0,4.8c0,87.9,13.7,172.6,39.1,252.1c102.5,68.9,188.7,160.2,251.7,266.9
	c12.5-56.5,19.3-115.2,19.5-175.4v-0.1C1368.1,886.2,1259.8,765.3,1125.9,681.6z"/>
<linearGradient id="SVGID_16_" gradientUnits="userSpaceOnUse" x1="2209.5747" y1="514.5401" x2="14.9446" y2="2364.6643">
	<stop  offset="0" style="stop-color:#37B34A"/>
	<stop  offset="6.913048e-02" style="stop-color:#4DB945"/>
	<stop  offset="0.2159" style="stop-color:#77C43A"/>
	<stop  offset="0.3661" style="stop-color:#99CE32"/>
	<stop  offset="0.5181" style="stop-color:#B4D52B"/>
	<stop  offset="0.6726" style="stop-color:#C7DA27"/>
	<stop  offset="0.8311" style="stop-color:#D2DD24"/>
	<stop  offset="1" style="stop-color:#D6DE23"/>
</linearGradient>
<path class="st15" d="M1152.9,1648.8c-12.9,11.3-26.1,22.1-39.7,32.6c-12,9.2-24.3,18.2-36.9,26.7
	c-62.8,43.1-131.9,77.8-205.7,102.3c-18.8,6.3-38,11.9-57.4,16.8c-121.8-6.8-236.5-39.9-338.6-93.8c77.7,24.1,160.2,37.1,245.8,37.1
	c6,0,12-0.1,18-0.2c-54.2-21.5-105.6-48.6-153.4-80.6c86,30.3,178.5,46.8,274.9,46.8c4.1,0,8.2,0,12.3-0.1
	c30.9-0.4,61.2-2.6,91.2-6.3c10-1.6,20.1-3.5,29.9-5.7C1049.5,1705,1102.9,1679.5,1152.9,1648.8z"/>
</svg>
