<?xml version="1.0" encoding="utf-8"?>
<!-- Generator: Adobe Illustrator 23.0.1, SVG Export Plug-In . SVG Version: 6.00 Build 0)  -->
<svg version="1.1" id="Layer_2" xmlns="http://www.w3.org/2000/svg" xmlns:xlink="http://www.w3.org/1999/xlink" x="0px" y="0px"
	 viewBox="0 0 595.3 841.9" style="enable-background:new 0 0 595.3 841.9;" xml:space="preserve">
<style type="text/css">
	.st0{fill:#FFFFFF;stroke:#B7B7B7;stroke-width:6;stroke-miterlimit:10;}
	.st1{fill:#FFFFFF;}
	.st2{fill:#0C8140;stroke:#0C8140;stroke-width:5;stroke-miterlimit:10;}
	.st3{fill:none;stroke:#FFFFFF;stroke-width:5;stroke-miterlimit:10;}
</style>
<path class="st0" d="M331.9,500.4v146.9c30.8,13.3,52.3,43.9,52.3,79.5c0,47.8-38.8,86.5-86.5,86.5c-47.8,0-86.5-38.8-86.5-86.5
	c0-35.6,21.5-66.2,52.3-79.5V500.5c-30.8-13.3-52.3-43.9-52.3-79.5c0-35.6,21.5-66.2,52.3-79.5V194.6
	c-30.8-13.3-52.3-43.9-52.3-79.5c0-47.8,38.8-86.5,86.5-86.5c47.8,0,86.5,38.8,86.5,86.5c0,35.6-21.5,66.2-52.3,79.5v146.9
	c30.8,13.3,52.3,43.9,52.3,79.5C384.2,456.6,362.6,487.2,331.9,500.4z"/>
<rect x="124.3" y="247.5" transform="matrix(-1.836970e-16 1 -1 -1.836970e-16 564.5159 -30.7601)" class="st1" width="346.6" height="38.8" id="stepto2"/>
<rect x="124.3" y="546.5" transform="matrix(-1.836970e-16 1 -1 -1.836970e-16 863.5201 268.2442)" class="st1" width="346.6" height="38.8" id="stepto3"/>
<circle class="st2" cx="297.6" cy="115.1" r="57.6" id="step1"/>
<circle class="st3" cx="297.6" cy="420.9" r="57.6" id="step2"/>
<circle class="st3" cx="297.6" cy="726.8" r="57.6" id="step3"/>
</svg>
